# xmcd
#
# Track frame offsets:
# 225
# 13500
# 22957
# 31456
# 39711
# 50061
# 60014
# 72589
# 82872
# 93093
# 102835
# 113166
# 126366
# 137331
# 146188
# 154745
#
# Disc length: 2273 seconds
#
#
# Revision: 0
# Processed by: cddbd v1.5.1PL2 Copyright (c) Steve Scherf et al.
# Submitted via: FreeRIP 2.942 
#
DISCID=ce08de10
DTITLE=Western - Wild Hits
DYEAR=2005
DGENRE=Classical
TTITLE0=Lo bueno, lo malo y lo feo
TTITLE1=Los 7 magnificos
TTITLE2=Bonanza
TTITLE3=Por un puñado de dólares
TTITLE4=El gran Chaparral
TTITLE5=Jinetes en el cielo
TTITLE6=Por unos dólares más
TTITLE7=El hombre que mató a Liberty Valance
TTITLE8=El árbol de la Horca
TTITLE9=Calles de Laredo
TTITLE10=Cuélguenlos alto
TTITLE11=A la hora señalada
TTITLE12=El gran país
TTITLE13=Shenandoah
TTITLE14=El valle del rio rojo
TTITLE15=Había una vez en el Oeste
EXTD=Made in Chile
EXTT0=
EXTT1=
EXTT2=
EXTT3=
EXTT4=
EXTT5=
EXTT6=
EXTT7=
EXTT8=
EXTT9=
EXTT10=
EXTT11=
EXTT12=
EXTT13=
EXTT14=
EXTT15=
PLAYORDER=
